<?xml version="1.0" standalone="no"?>
<!DOCTYPE svg PUBLIC "-//W3C//DTD SVG 20010904//EN"
 "http://www.w3.org/TR/2001/REC-SVG-20010904/DTD/svg10.dtd">
<svg version="1.0" xmlns="http://www.w3.org/2000/svg"
 width="840.000000pt" height="476.000000pt" viewBox="0 0 840.000000 476.000000"
 preserveAspectRatio="xMidYMid meet">

<g transform="translate(0.000000,476.000000) scale(0.100000,-0.100000)"
fill="#000000" stroke="none">
<path d="M5844 4339 c-213 -16 -440 -59 -641 -120 -81 -25 -102 -36 -99 -48 3
-9 17 -83 32 -166 28 -158 45 -208 68 -199 8 3 21 -5 30 -18 15 -21 16 -16 12
87 -2 61 -7 160 -11 221 l-8 111 89 17 c193 39 278 48 495 53 238 6 349 -2
539 -39 201 -38 422 -124 561 -219 64 -43 166 -139 207 -192 16 -22 26 -26 46
-21 33 8 33 14 -5 85 -172 321 -686 497 -1315 448z"/>
<path d="M5645 4219 c-90 -8 -306 -42 -345 -54 -13 -4 -14 -20 -8 -112 13
-167 25 -233 45 -248 10 -7 20 -10 23 -6 3 3 134 7 293 6 214 0 287 -3 287
-12 0 -6 -6 -13 -12 -15 -7 -3 1 -5 19 -5 28 0 31 3 22 19 -8 15 -6 18 12 18
14 0 19 -5 16 -15 -4 -8 -2 -17 4 -20 5 -4 8 -3 7 2 -1 4 3 24 10 44 15 42 49
57 150 66 84 7 159 -9 223 -49 25 -15 52 -28 58 -28 7 0 10 -4 6 -9 -3 -5 -1
-12 5 -16 6 -3 12 0 15 7 4 11 54 13 239 13 129 0 232 -3 229 -7 -2 -5 3 -8
12 -8 9 0 13 -4 10 -10 -3 -5 1 -10 11 -10 17 0 28 -10 92 -88 36 -44 61 -45
47 -2 -18 56 -129 203 -193 254 -161 130 -411 226 -702 271 -128 19 -439 27
-575 14z"/>
<path d="M3819 4164 c-173 -31 -349 -119 -476 -237 -67 -63 -123 -131 -123
-151 0 -6 7 -1 15 11 9 12 22 20 29 17 8 -3 42 20 77 52 178 159 325 234 528
269 46 8 85 15 87 15 2 0 4 9 4 20 0 24 -27 25 -141 4z"/>
<path d="M4030 4088 c0 -12 25 -16 143 -21 278 -11 505 -82 685 -214 l47 -34
-54 51 c-57 52 -191 127 -289 161 -109 38 -235 60 -384 66 -127 5 -148 4 -148
-9z"/>
<path d="M3845 4065 c-162 -36 -291 -104 -407 -213 -20 -20 -35 -39 -32 -44 3
-4 1 -8 -4 -8 -5 0 -33 -30 -61 -67 -28 -38 -56 -74 -61 -80 -8 -10 -7 -13 5
-13 10 0 13 -5 9 -12 -5 -7 30 22 76 65 47 42 91 77 98 77 7 0 21 8 32 18 18
17 53 18 562 16 333 -1 555 -6 573 -12 17 -6 23 -11 15 -11 -13 -1 -13 -2 0
-11 9 -6 17 -5 21 2 9 15 74 -19 162 -84 37 -28 70 -48 74 -45 3 4 15 1 26 -5
18 -9 17 -5 -6 22 -16 18 -48 51 -72 72 -25 22 -42 44 -39 49 2 5 -6 11 -20
15 -14 3 -23 11 -20 17 7 18 -112 89 -211 126 -118 45 -222 62 -405 68 -112 4
-178 10 -182 17 -4 6 -8 21 -8 34 0 18 -5 22 -32 21 -18 0 -60 -7 -93 -14z"/>
<path d="M2795 3968 c-345 -19 -355 -25 -47 -27 286 -1 292 -1 292 19 0 23 6
23 -245 8z"/>
<path d="M1364 3872 c-18 -3 -21 -10 -20 -50 l1 -47 820 0 820 0 -3 45 c-2 24
-5 47 -8 50 -6 5 -1572 7 -1610 2z"/>
<path d="M6525 3780 c-3 -5 -1 -10 4 -10 6 0 11 5 11 10 0 6 -2 10 -4 10 -3 0
-8 -4 -11 -10z"/>
<path d="M3508 3773 c6 -2 18 -2 25 0 6 3 1 5 -13 5 -14 0 -19 -2 -12 -5z"/>
<path d="M5198 3773 c7 -3 16 -2 19 1 4 3 -2 6 -13 5 -11 0 -14 -3 -6 -6z"/>
<path d="M7158 3773 c7 -3 16 -2 19 1 4 3 -2 6 -13 5 -11 0 -14 -3 -6 -6z"/>
<path d="M1967 1963 c-10 -9 -9 -151 1 -156 4 -2 25 1 47 7 39 11 40 12 37 56
-5 89 -10 100 -46 100 -18 0 -36 -3 -39 -7z"/>
<path d="M3205 1960 c-11 -17 208 -133 313 -165 22 -6 22 -5 22 84 l0 91 -164
0 c-94 0 -167 -4 -171 -10z"/>
<path d="M4313 1942 l-133 -26 0 -68 c0 -65 1 -68 24 -68 73 0 445 157 430
181 -11 18 -188 7 -321 -19z"/>
<path d="M5474 1956 c-3 -8 -4 -31 -2 -52 3 -36 5 -39 33 -37 17 1 125 21 240
45 249 51 244 55 -58 57 -169 1 -209 -2 -213 -13z"/>
<path d="M1895 1873 c4 -49 11 -95 17 -103 7 -11 8 -8 4 10 -3 14 -6 60 -6
103 0 50 -4 77 -11 77 -8 0 -9 -25 -4 -87z"/>
<path d="M3680 1862 c0 -63 4 -93 14 -101 17 -14 206 -26 279 -17 l57 7 0 80
0 79 -57 0 c-52 0 -171 16 -260 36 l-33 7 0 -91z"/>
<path d="M3582 1838 c3 -63 3 -63 36 -66 l32 -3 0 65 0 66 -35 0 -36 0 3 -62z"/>
<path d="M4078 1846 c-4 -73 0 -86 26 -86 35 0 46 20 46 82 l0 58 -34 0 -34 0
-4 -54z"/>
<path d="M5370 1870 c0 -21 5 -30 16 -30 27 0 54 20 54 40 0 16 -7 20 -35 20
-32 0 -35 -2 -35 -30z"/>
<path d="M2413 1782 l-143 -46 0 -62 0 -62 163 50 c89 27 166 54 171 58 4 4 5
31 1 59 -9 63 -5 63 -192 3z"/>
<path d="M1973 1752 c-92 -23 -84 -42 17 -42 83 0 89 4 74 44 -7 19 -10 19
-91 -2z"/>
<path d="M2188 1708 c-26 -9 -28 -13 -28 -69 0 -62 3 -65 44 -49 24 9 26 14
26 70 0 33 -3 60 -7 59 -5 0 -20 -5 -35 -11z"/>
<path d="M1930 1635 l0 -35 60 0 60 0 0 35 0 35 -60 0 -60 0 0 -35z"/>
</g>
</svg>
